<svg width="46" height="34" viewBox="0 0 46 34" fill="none" xmlns="http://www.w3.org/2000/svg">
<path d="M45.3601 5.75C45.4401 6.04 45.3391 6.36 45.1701 6.61L39.7801 14.63C39.5801 14.94 39.1601 15.11 38.8091 15.11C38.7091 15.11 38.4291 15.09 38.3201 15.06L34.0001 14V33C34.0001 33.58 33.5901 34 33.0001 34H12.0001C11.4101 34 11.0001 33.58 11.0001 33V14L7.12015 15.07C6.67015 15.21 6.28015 15.03 6.03015 14.64L0.680149 6.64C0.510149 6.38 0.460149 6.09 0.540149 5.8C0.610149 5.5 0.820149 5.3 1.09015 5.16L12.0001 0H17.0001C17.5901 0 18.0001 0.41 18.0001 1C18.0001 3.06 20.8901 4.52 22.9501 4.52C25.0101 4.52 28.0001 3.07 28.0001 1C28.0001 0.42 28.4101 0 29.0001 0H34.0001L44.8001 5.06C45.0801 5.2 45.2801 5.45 45.3601 5.75V5.75Z" fill="black"/>
</svg>
